<svg width="151" height="151" viewBox="0 0 151 151" fill="none" xmlns="http://www.w3.org/2000/svg">
<path d="M33.0312 120.328C30.4359 120.328 28.0766 119.856 25.7172 119.148C16.0437 115.845 9.4375 106.88 9.4375 96.7344C9.4375 89.8922 12.2688 83.5219 17.4594 79.0391C18.875 77.8594 20.2906 76.9156 21.9422 75.9719L23.5938 70.5453C27.6047 56.8609 40.1094 47.4234 54.2656 47.4234C55.6813 47.4234 57.0969 47.4234 58.7484 47.8953C60.1641 48.1312 61.3438 48.3672 62.5234 48.6031L63.2312 47.4234C68.8937 37.0422 79.7469 30.6719 91.5437 30.6719C109.475 30.6719 123.867 45.3 123.867 62.9953C123.867 63.9391 123.867 64.6469 123.631 65.5906V66.2984C125.047 66.7703 126.462 67.4781 127.642 68.1859C136.372 73.1406 141.562 82.3422 141.562 92.4875C141.562 105.464 132.597 116.789 119.856 119.62C117.733 120.092 115.609 120.328 113.722 120.328H33.0312Z" fill="white"/>
<path d="M91.3078 35.3906C106.644 35.3906 118.913 47.8953 118.913 62.9953V65.1188C112.542 65.5906 106.644 68.1859 102.161 72.1969C105.464 70.3094 109.475 69.1297 113.722 69.1297C115.373 69.1297 116.789 69.3656 118.205 69.6016C120.8 70.0734 123.159 71.0172 125.283 72.1969C132.125 76.2078 136.844 83.7578 136.844 92.2516C136.844 103.341 129.058 112.542 118.913 114.902C117.261 115.373 115.609 115.609 113.722 115.609H33.0312C30.9078 115.609 29.0203 115.373 27.1328 114.666C19.5828 112.07 14.1562 104.992 14.1562 96.7344C14.1562 91.0719 16.7516 85.8812 20.5266 82.5781C22.4141 80.9266 24.3016 79.7469 26.6609 79.0391C28.5484 78.3312 30.6719 77.8594 32.7953 77.8594C38.9297 77.8594 44.3563 80.6906 47.6594 85.1734H47.8953C43.8844 77.8594 36.3344 72.6687 27.6047 71.725C30.9078 60.4 41.2891 51.9062 53.7937 51.9062C55.2094 51.9062 56.3891 52.1422 57.5687 52.1422C60.1641 52.6141 62.5234 53.0859 64.6469 54.2656C72.9047 58.0406 79.0391 65.8266 80.4547 75.2641V75.0281C80.4547 64.4109 75.0281 54.9734 66.7703 49.5469C71.9609 41.0531 80.9266 35.3906 91.3078 35.3906ZM91.3078 25.9531C78.5672 25.9531 66.7703 32.5594 59.9281 43.1766C59.6922 43.1766 59.4563 43.1766 59.2203 42.9406C57.3328 42.7047 55.6812 42.4688 54.0297 42.4688C37.75 42.4688 23.3578 53.3219 18.875 69.1297L17.6953 72.9047C16.5156 73.6125 15.3359 74.5562 14.3922 75.5C8.25781 80.6906 4.71875 88.4766 4.71875 96.7344C4.71875 109.003 12.5047 119.856 24.0656 123.631C26.8969 124.575 29.9641 125.047 33.0312 125.047H113.722C116.081 125.047 118.677 124.811 121.036 124.103C135.9 120.564 146.281 107.587 146.281 92.2516C146.281 80.6906 139.911 69.8375 130.002 63.9391L128.586 63.2312V62.9953C128.35 42.7047 111.834 25.9531 91.3078 25.9531Z" fill="#75D6FF"/>
</svg>
